<?xml version="1.0" standalone="no"?>
<!DOCTYPE svg PUBLIC "-//W3C//DTD SVG 20010904//EN"
 "http://www.w3.org/TR/2001/REC-SVG-20010904/DTD/svg10.dtd">
<svg version="1.0" xmlns="http://www.w3.org/2000/svg"
 width="500.000000pt" height="500.000000pt" viewBox="0 0 500.000000 500.000000"
 preserveAspectRatio="xMidYMid meet">

<g transform="translate(0.000000,500.000000) scale(0.100000,-0.100000)"
fill="#000000" stroke="none">
<path d="M1804 4045 c-138 -31 -283 -93 -405 -175 -154 -104 -328 -316 -399
-486 -123 -296 -117 -641 15 -921 159 -338 460 -569 829 -638 113 -21 338 -14
454 15 46 11 116 20 155 20 l73 0 79 -81 c131 -134 252 -214 410 -272 147 -54
189 -61 375 -61 161 -1 183 1 275 27 390 107 666 386 777 782 25 93 35 316 18
422 -79 495 -496 878 -991 910 l-96 6 -6 53 c-13 129 -105 243 -250 313 -178
87 -399 105 -730 62 -95 -13 -230 -57 -357 -117 l-95 -45 28 -15 c15 -8 27
-17 27 -20 0 -3 -18 -27 -41 -52 -52 -60 -102 -149 -130 -234 -12 -37 -25 -65
-29 -63 -4 3 -34 -7 -65 -20 -64 -29 -177 -55 -233 -55 -94 0 -172 51 -172
112 1 106 124 232 296 303 48 20 88 46 129 85 33 32 87 79 120 105 33 26 62
49 64 51 9 8 -68 1 -125 -11z m1850 -520 c135 -35 208 -71 304 -151 l82 -68 0
-107 0 -106 -187 -6 -188 -5 -168 105 c-92 58 -169 109 -172 113 -4 6 22 210
27 216 6 5 146 32 174 33 18 1 75 -10 128 -24z m-877 -89 l25 -12 -39 -29
c-21 -16 -66 -53 -100 -82 l-63 -54 -56 11 c-61 13 -104 45 -104 79 0 31 48
80 88 90 87 23 203 21 249 -3z m186 -44 c34 -16 83 -45 108 -65 l47 -35 49 23
c27 12 69 41 92 63 l43 41 -4 -54 c-3 -30 -7 -57 -9 -59 -2 -2 -62 -37 -132
-79 l-129 -76 -51 20 c-48 19 -202 58 -292 74 l-40 7 45 40 c62 56 171 128
193 128 9 0 45 -13 80 -28z m1118 -89 c13 -16 12 -17 -3 -4 -17 13 -22 21 -14
21 2 0 10 -8 17 -17z m84 -436 l115 -193 -82 -189 -83 -189 -40 -8 c-21 -5
-104 -7 -184 -6 l-144 3 -114 175 c-63 96 -117 181 -120 188 -3 6 29 100 72
207 l76 194 97 4 c53 1 141 4 194 5 l97 2 116 -193z m-1575 -132 c151 -13 214
-65 190 -155 -20 -76 -114 -110 -254 -94 l-79 9 -33 88 -34 88 21 40 20 40 52
-5 c29 -3 81 -8 117 -11z m1846 -112 c9 -77 -1 -254 -20 -333 -31 -130 -90
-269 -152 -358 -1 -2 -22 2 -48 9 -51 13 -46 2 -66 158 -18 146 -17 150 74
366 l84 200 43 6 c82 11 77 14 85 -48z m-2052 -51 c25 -64 23 -68 -21 -56 -17
5 -23 14 -23 34 0 33 11 92 16 87 3 -2 15 -32 28 -65z m1225 -131 c61 -95 111
-178 111 -183 0 -5 -48 -88 -107 -184 l-108 -174 -235 2 c-151 2 -234 7 -232
13 2 6 24 18 48 27 228 90 381 316 401 590 3 49 7 87 8 86 1 -2 52 -81 114
-177z m624 -540 c12 -12 -132 -161 -211 -219 -37 -28 -101 -68 -142 -90 -75
-41 -223 -96 -241 -90 -20 7 125 134 311 273 189 140 196 145 235 139 22 -3
44 -9 48 -13z m-1471 -140 c219 -177 270 -221 256 -221 -26 0 -187 88 -250
136 -81 62 -144 120 -169 156 l-20 28 30 0 c23 0 58 -23 153 -99z m861 3 c59
-53 107 -99 107 -103 0 -3 -40 -46 -88 -94 l-88 -87 -95 -7 c-95 -6 -267 9
-317 28 -24 9 -224 174 -230 190 -2 5 27 44 65 88 l68 80 235 1 235 0 108 -96z"/>
</g>
</svg>
